<?xml version="1.0" encoding="UTF-8" standalone="no"?>
<!-- Created with Inkscape (http://www.inkscape.org/) -->
<svg
   xmlns:svg="http://www.w3.org/2000/svg"
   xmlns="http://www.w3.org/2000/svg"
   version="1.0"
   width="611.79999"
   height="618.20001"
   viewBox="0 0 611.8 618.2"
   id="Layer_1"
   xml:space="preserve"
   style="overflow:visible"><defs
     id="defs3302"><marker
       refX="0"
       refY="0"
       orient="auto"
       id="Arrow1Send"
       style="overflow:visible"><path
         d="M 0,0 L 5,-5 L -12.5,0 L 5,5 L 0,0 z"
         transform="matrix(-0.2,0,0,-0.2,-1.2,0)"
         id="path3289"
         style="fill-rule:evenodd;stroke:#000000;stroke-width:1pt;marker-start:none" /></marker><marker
       refX="0"
       refY="0"
       orient="auto"
       id="Arrow1Sstart"
       style="overflow:visible"><path
         d="M 0,0 L 5,-5 L -12.5,0 L 5,5 L 0,0 z"
         transform="matrix(0.2,0,0,0.2,1.2,0)"
         id="path3286"
         style="fill-rule:evenodd;stroke:#000000;stroke-width:1pt;marker-start:none" /></marker></defs><path
     d="M 531.86202,381.46087 L 540.31269,354.79713 L 569.44179,364.02915"
     id="RightAngle"
     style="fill:none;stroke:#e51ce5;stroke-width:3;stroke-miterlimit:4;stroke-dasharray:none;stroke-opacity:1" /><line
     id="Diameter_line"
     x1="54.799999"
     y1="229.42882"
     x2="556.84467"
     y2="388.5"
     style="fill:none;stroke:#e51ce5;stroke-width:5;stroke-miterlimit:4;stroke-dasharray:none;stroke-opacity:1" /><text
     x="458.73853"
     y="196.81512"
     transform="matrix(0.9532273,0.3022545,-0.3022545,0.9532273,0,0)"
     id="Diameter_Text"
     xml:space="preserve"
     style="font-size:30.00001335px;font-style:normal;font-weight:normal;fill:#e51ce3;fill-opacity:1;font-family:Arial">Diameter</text>
<line
     id="Chord_line"
     clip-path="url(#XMLID_3_)"
     x1="59.900002"
     y1="213.2"
     x2="388.89999"
     y2="59.799999"
     style="fill:#1c1ce5;fill-opacity:1;stroke:#1c1ce5;stroke-width:4;stroke-opacity:1" /><text
     x="107.47446"
     y="214.01051"
     transform="matrix(0.9062204,-0.4228057,0.4228057,0.9062204,0,0)"
     id="Chord_Text"
     xml:space="preserve"
     style="font-size:30.00002098px;font-style:normal;font-weight:normal;fill:#1c1ce5;fill-opacity:1;font-family:Arial">Chord<tspan
   id="tspan3248"
   style="font-size:30.79550362px;font-style:normal;font-variant:normal;font-weight:normal;font-stretch:normal;text-align:start;line-height:125%;writing-mode:lr-tb;text-anchor:start;fill:#1c1ce5;fill-opacity:1;stroke:none;stroke-opacity:1;font-family:Serif" /></text>
<path
     d="M 555.52551,399.92951 C 505.42551,537.72951 353.02551,608.82951 215.12551,558.62951 C 77.225513,508.52951 6.2255135,356.02951 56.325513,218.32951 C 106.52551,80.429509 258.92551,9.4295087 396.72551,59.529509 C 534.52551,109.62951 605.52551,262.12951 555.52551,399.92951 z"
     id="Circle"
     style="fill:none;stroke:#1f1f1f;stroke-width:8" /><line
     id="Tangent_line"
     x1="495.02835"
     y1="604.72968"
     x2="602.97168"
     y2="253.68326"
     style="fill:none;stroke:#e41b1b;stroke-width:3.99999952;marker-start:url(#Arrow1Sstart);marker-end:url(#Arrow1Send);stroke-opacity:1" /><text
     x="-366.98346"
     y="677.15735"
     transform="matrix(0.2922703,-0.9563357,0.9563357,0.2922703,0,0)"
     id="Tangent_Text"
     xml:space="preserve"
     style="font-size:29.99998665px;font-style:normal;font-weight:normal;fill:#e41b1b;fill-opacity:1;font-family:Arial">Tangent</text>
<line
     id="Secant_line"
     x1="11.141842"
     y1="271.29788"
     x2="415.43268"
     y2="608.45758"
     style="fill:none;stroke:#1ce51c;stroke-width:4;stroke-linecap:butt;marker-start:url(#Arrow1Sstart);marker-end:url(#Arrow1Send);stroke-miterlimit:4;stroke-dasharray:none;stroke-opacity:1" /><text
     x="456.3956"
     y="195.91234"
     transform="matrix(0.7667869,0.6419017,-0.6419017,0.7667869,0,0)"
     id="Secant_Text"
     xml:space="preserve"
     style="font-size:30.00001144px;font-style:normal;font-weight:normal;fill:#1be41b;fill-opacity:1;stroke:none;font-family:Arial">Secant</text>
<line
     id="Radius_line"
     clip-path="url(#XMLID_3_)"
     x1="304.50003"
     y1="309.90002"
     x2="521.5"
     y2="149.50002"
     style="fill:none;stroke:#e5e51c;stroke-width:4;stroke-opacity:1" /><text
     x="138.60915"
     y="425.82504"
     transform="matrix(0.8034485,-0.5953743,0.5953743,0.8034485,0,0)"
     id="Radius_Text"
     xml:space="preserve"
     style="font-size:30.00000572px;font-style:normal;font-weight:normal;fill:#e3e51d;fill-opacity:1;font-family:Arial">Radius</text>
<path
     d="M 438.47968,253.27904 C 438.47968,254.93589 437.13653,256.27904 435.47968,256.27904 C 433.82283,256.27904 432.47968,254.93589 432.47968,253.27904 C 432.47968,251.62219 433.82283,250.27904 435.47968,250.27904 C 437.13653,250.27904 438.47968,251.62219 438.47968,253.27904 L 438.47968,253.27904 z"
     transform="matrix(3.3332852,0,0,3.3332852,-1145.6779,-535.15125)"
     id="Center"
     style="fill:#000000;stroke:none" /></svg>